<svg width="16" height="16" viewBox="0 0 16 16" fill="none" xmlns="http://www.w3.org/2000/svg">
<path d="M1.76972 13.1697C1.47683 13.4626 1.47683 13.9374 1.76972 14.2303C2.06261 14.5232 2.53749 14.5232 2.83038 14.2303L1.76972 13.1697ZM14.3638 2.3863C14.3638 1.97209 14.028 1.6363 13.6138 1.6363L6.86376 1.6363C6.44954 1.6363 6.11376 1.97209 6.11376 2.3863C6.11376 2.80052 6.44954 3.1363 6.86376 3.1363H12.8638V9.1363C12.8638 9.55052 13.1995 9.8863 13.6138 9.8863C14.028 9.8863 14.3638 9.55052 14.3638 9.1363L14.3638 2.3863ZM2.83038 14.2303L14.1441 2.91663L13.0834 1.85597L1.76972 13.1697L2.83038 14.2303Z" fill="#D13329"/>
</svg>
