<svg width="24" height="24" viewBox="0 0 24 24" fill="none" xmlns="http://www.w3.org/2000/svg">
<path d="M15.65 10.675C16.0333 10.675 16.3542 10.5458 16.6125 10.2875C16.8708 10.0292 17 9.70833 17 9.325C17 8.94167 16.8708 8.62083 16.6125 8.3625C16.3542 8.10417 16.0333 7.975 15.65 7.975C15.2667 7.975 14.9458 8.10417 14.6875 8.3625C14.4292 8.62083 14.3 8.94167 14.3 9.325C14.3 9.70833 14.4292 10.0292 14.6875 10.2875C14.9458 10.5458 15.2667 10.675 15.65 10.675ZM8.35 10.675C8.73333 10.675 9.05417 10.5458 9.3125 10.2875C9.57083 10.0292 9.7 9.70833 9.7 9.325C9.7 8.94167 9.57083 8.62083 9.3125 8.3625C9.05417 8.10417 8.73333 7.975 8.35 7.975C7.96667 7.975 7.64583 8.10417 7.3875 8.3625C7.12917 8.62083 7 8.94167 7 9.325C7 9.70833 7.12917 10.0292 7.3875 10.2875C7.64583 10.5458 7.96667 10.675 8.35 10.675ZM8.85 15.525H15.175V14.3H8.85V15.525ZM12 22C10.6333 22 9.34167 21.7375 8.125 21.2125C6.90833 20.6875 5.84583 19.9708 4.9375 19.0625C4.02917 18.1542 3.3125 17.0917 2.7875 15.875C2.2625 14.6583 2 13.3583 2 11.975C2 10.6083 2.2625 9.31667 2.7875 8.1C3.3125 6.88333 4.02917 5.825 4.9375 4.925C5.84583 4.025 6.90833 3.3125 8.125 2.7875C9.34167 2.2625 10.6417 2 12.025 2C13.3917 2 14.6833 2.2625 15.9 2.7875C17.1167 3.3125 18.175 4.025 19.075 4.925C19.975 5.825 20.6875 6.88333 21.2125 8.1C21.7375 9.31667 22 10.6167 22 12C22 13.3667 21.7375 14.6583 21.2125 15.875C20.6875 17.0917 19.975 18.1542 19.075 19.0625C18.175 19.9708 17.1167 20.6875 15.9 21.2125C14.6833 21.7375 13.3833 22 12 22ZM12 20.5C14.3667 20.5 16.375 19.6708 18.025 18.0125C19.675 16.3542 20.5 14.35 20.5 12C20.5 9.63333 19.675 7.625 18.025 5.975C16.375 4.325 14.3667 3.5 12 3.5C9.65 3.5 7.64583 4.325 5.9875 5.975C4.32917 7.625 3.5 9.63333 3.5 12C3.5 14.35 4.32917 16.3542 5.9875 18.0125C7.64583 19.6708 9.65 20.5 12 20.5Z" fill="#DA9E01"/>
</svg>
