<svg width="94" height="100" viewBox="0 0 94 100" fill="none" xmlns="http://www.w3.org/2000/svg">
<path fill-rule="evenodd" clip-rule="evenodd" d="M40.0764 0.257951C34.5144 1.07503 29.0049 4.17863 25.5289 8.45333C23.4665 10.9893 22.3874 12.9142 21.4382 15.7513C20.3717 18.9387 20.247 20.3121 20.2462 28.9015L20.2454 36.6467L16.5821 36.739C11.8924 36.857 9.91476 37.3726 7.11459 39.2074C3.69897 41.4453 1.34074 44.788 0.27651 48.9001C-0.0921701 50.325 -0.0921701 86.3557 0.27651 87.7806C1.34074 91.8927 3.69897 95.2355 7.11459 97.4734C8.51663 98.392 9.71411 98.9219 11.8412 99.5649C12.8197 99.8607 15.3107 99.8957 38.9227 99.9453L64.9269 100L65.9761 99.452C66.8275 99.0071 67.1278 98.7076 67.5694 97.8624C68.2642 96.5322 68.2642 95.6362 67.5694 94.3061C67.129 93.463 66.827 93.1609 65.9839 92.7206L64.9427 92.1766H39.966C22.2172 92.1766 14.6898 92.1131 13.954 91.957C11.0497 91.3408 8.79368 89.1635 8.00669 86.2176C7.62414 84.785 7.62414 51.8957 8.00669 50.4632C8.79368 47.5172 11.0497 45.3399 13.954 44.7237C15.4604 44.4043 71.8668 44.414 74.0818 44.7345C75.6122 44.9556 75.7114 44.9461 76.6219 44.4902C77.143 44.2292 77.8336 43.6827 78.1566 43.2758C79.2796 41.8608 79.0411 39.4082 77.6545 38.1148C76.5678 37.1012 74.3416 36.6889 69.9554 36.6889H67.1364V29.4523C67.1364 21.5918 66.9774 19.3639 66.2316 16.7845C63.0001 5.60528 51.8095 -1.46568 40.0764 0.257951ZM47.5008 8.22375C53.1832 9.80789 57.2364 13.7317 58.8486 19.2095C59.145 20.2167 59.2023 21.481 59.2699 28.5319L59.348 36.6889H43.6927H28.0375L28.1044 28.4342C28.1798 19.1148 28.1649 19.2199 29.879 15.8811C31.0585 13.5836 33.7672 10.9157 36.1688 9.68597C37.9224 8.78821 39.3895 8.27631 41.118 7.95941C42.3727 7.72925 46.3123 7.89259 47.5008 8.22375ZM77.8823 51.0804C71.2468 52.1063 66.1332 57.8118 66.0779 64.2507C66.0632 65.9655 66.1052 66.1857 66.5861 66.9131C67.3926 68.1335 68.3476 68.6334 69.8717 68.6334C72.1946 68.6334 73.4409 67.3941 73.776 64.7516C74.0157 62.8608 74.5427 61.6416 75.5766 60.5854C76.7415 59.3955 78.0347 58.8766 79.8361 58.8766C82.327 58.8766 84.3232 60.1469 85.3432 62.3813C86.0093 63.8402 85.9769 66.1265 85.2709 67.4612C84.5809 68.7663 83.5752 69.6748 81.6922 70.6951C77.6457 72.8874 75.9285 76.1129 75.9285 81.5214C75.9285 83.8783 75.9691 84.171 76.4238 85.0832C77.1533 86.5472 78.191 87.1855 79.8503 87.1906C80.9204 87.1939 81.2667 87.1071 81.9266 86.6703C83.3791 85.709 83.6292 85.0498 83.7423 81.8837C83.8625 78.5237 83.9119 78.4331 86.3954 77.0347C93.3878 73.0973 95.7491 64.5381 91.7234 57.7227C90.3104 55.3309 87.6854 53.0568 85.1461 52.025C83.0266 51.1638 79.9392 50.7623 77.8823 51.0804ZM20.5746 63.85C19.6876 64.1161 18.7529 64.9451 18.3116 65.8569C17.1274 68.3031 18.716 71.1271 21.4285 71.3975C22.343 71.4887 22.6422 71.4246 23.5602 70.9411C24.4291 70.4833 24.7294 70.1844 25.1721 69.337C25.4869 68.7345 25.7161 67.9854 25.7161 67.5589C25.7161 67.1323 25.4869 66.3833 25.1721 65.7807C24.3019 64.1149 22.3803 63.308 20.5746 63.85ZM35.2281 63.85C34.3411 64.1161 33.4064 64.9451 32.965 65.8569C31.7808 68.3031 33.3694 71.1271 36.0819 71.3975C36.9965 71.4887 37.2956 71.4246 38.2137 70.9411C39.0825 70.4833 39.3828 70.1844 39.8256 69.337C40.1403 68.7345 40.3695 67.9854 40.3695 67.5589C40.3695 67.1323 40.1403 66.3833 39.8256 65.7807C38.9553 64.1149 37.0338 63.308 35.2281 63.85ZM49.8815 63.85C48.9945 64.1161 48.0598 64.9451 47.6184 65.8569C46.4343 68.3031 48.0229 71.1271 50.7353 71.3975C51.6499 71.4887 51.949 71.4246 52.8671 70.9411C53.736 70.4833 54.0363 70.1844 54.479 69.337C54.7938 68.7345 55.0229 67.9854 55.0229 67.5589C55.0229 67.1323 54.7938 66.3833 54.479 65.7807C53.6088 64.1149 51.6872 63.308 49.8815 63.85ZM78.6023 92.3753C77.7152 92.6414 76.7805 93.4704 76.3392 94.3823C75.155 96.8284 76.7436 99.6524 79.4561 99.9228C80.3706 100.014 80.6698 99.95 81.5879 99.4664C82.4567 99.0087 82.757 98.7097 83.1997 97.8624C83.5145 97.2598 83.7437 96.5107 83.7437 96.0842C83.7437 95.6577 83.5145 94.9086 83.1997 94.3061C82.3295 92.6403 80.408 91.8333 78.6023 92.3753Z" fill="#0061FF"/>
</svg>
